<svg id="visual" viewBox="0 0 900 600" width="900" height="600" xmlns="http://www.w3.org/2000/svg" xmlns:xlink="http://www.w3.org/1999/xlink" version="1.1"><rect x="0" y="0" width="900" height="600" fill="#ffffff"></rect><path d="M0 105L300 117L600 143L900 149L900 0L600 0L300 0L0 0Z" fill="#ededed"></path><path d="M0 107L300 110L600 71L900 127L900 0L600 0L300 0L0 0Z" fill="#f1f1f1"></path><path d="M0 87L300 48L600 66L900 86L900 0L600 0L300 0L0 0Z" fill="#f6f6f6"></path><path d="M0 45L300 47L600 42L900 34L900 0L600 0L300 0L0 0Z" fill="#fafafa"></path><path d="M0 20L300 26L600 44L900 21L900 0L600 0L300 0L0 0Z" fill="#ffffff"></path></svg>